# vtk DataFile Version 2.0
jnl FVM output
ASCII
DATASET UNSTRUCTURED_GRID
POINTS 451 float
0 0 0.0
0.2 0 0.0
0.4 0 0.0
0.6 0 0.0
0.8 0 0.0
1 0 0.0
1.2 0 0.0
1.4 0 0.0
1.6 0 0.0
1.8 0 0.0
2 0 0.0
0 0.025 0.0
0.2 0.025 0.0
0.4 0.025 0.0
0.6 0.025 0.0
0.8 0.025 0.0
1 0.025 0.0
1.2 0.025 0.0
1.4 0.025 0.0
1.6 0.025 0.0
1.8 0.025 0.0
2 0.025 0.0
0 0.05 0.0
0.2 0.05 0.0
0.4 0.05 0.0
0.6 0.05 0.0
0.8 0.05 0.0
1 0.05 0.0
1.2 0.05 0.0
1.4 0.05 0.0
1.6 0.05 0.0
1.8 0.05 0.0
2 0.05 0.0
0 0.075 0.0
0.2 0.075 0.0
0.4 0.075 0.0
0.6 0.075 0.0
0.8 0.075 0.0
1 0.075 0.0
1.2 0.075 0.0
1.4 0.075 0.0
1.6 0.075 0.0
1.8 0.075 0.0
2 0.075 0.0
0 0.1 0.0
0.2 0.1 0.0
0.4 0.1 0.0
0.6 0.1 0.0
0.8 0.1 0.0
1 0.1 0.0
1.2 0.1 0.0
1.4 0.1 0.0
1.6 0.1 0.0
1.8 0.1 0.0
2 0.1 0.0
0 0.125 0.0
0.2 0.125 0.0
0.4 0.125 0.0
0.6 0.125 0.0
0.8 0.125 0.0
1 0.125 0.0
1.2 0.125 0.0
1.4 0.125 0.0
1.6 0.125 0.0
1.8 0.125 0.0
2 0.125 0.0
0 0.15 0.0
0.2 0.15 0.0
0.4 0.15 0.0
0.6 0.15 0.0
0.8 0.15 0.0
1 0.15 0.0
1.2 0.15 0.0
1.4 0.15 0.0
1.6 0.15 0.0
1.8 0.15 0.0
2 0.15 0.0
0 0.175 0.0
0.2 0.175 0.0
0.4 0.175 0.0
0.6 0.175 0.0
0.8 0.175 0.0
1 0.175 0.0
1.2 0.175 0.0
1.4 0.175 0.0
1.6 0.175 0.0
1.8 0.175 0.0
2 0.175 0.0
0 0.2 0.0
0.2 0.2 0.0
0.4 0.2 0.0
0.6 0.2 0.0
0.8 0.2 0.0
1 0.2 0.0
1.2 0.2 0.0
1.4 0.2 0.0
1.6 0.2 0.0
1.8 0.2 0.0
2 0.2 0.0
0 0.225 0.0
0.2 0.225 0.0
0.4 0.225 0.0
0.6 0.225 0.0
0.8 0.225 0.0
1 0.225 0.0
1.2 0.225 0.0
1.4 0.225 0.0
1.6 0.225 0.0
1.8 0.225 0.0
2 0.225 0.0
0 0.25 0.0
0.2 0.25 0.0
0.4 0.25 0.0
0.6 0.25 0.0
0.8 0.25 0.0
1 0.25 0.0
1.2 0.25 0.0
1.4 0.25 0.0
1.6 0.25 0.0
1.8 0.25 0.0
2 0.25 0.0
0 0.275 0.0
0.2 0.275 0.0
0.4 0.275 0.0
0.6 0.275 0.0
0.8 0.275 0.0
1 0.275 0.0
1.2 0.275 0.0
1.4 0.275 0.0
1.6 0.275 0.0
1.8 0.275 0.0
2 0.275 0.0
0 0.3 0.0
0.2 0.3 0.0
0.4 0.3 0.0
0.6 0.3 0.0
0.8 0.3 0.0
1 0.3 0.0
1.2 0.3 0.0
1.4 0.3 0.0
1.6 0.3 0.0
1.8 0.3 0.0
2 0.3 0.0
0 0.325 0.0
0.2 0.325 0.0
0.4 0.325 0.0
0.6 0.325 0.0
0.8 0.325 0.0
1 0.325 0.0
1.2 0.325 0.0
1.4 0.325 0.0
1.6 0.325 0.0
1.8 0.325 0.0
2 0.325 0.0
0 0.35 0.0
0.2 0.35 0.0
0.4 0.35 0.0
0.6 0.35 0.0
0.8 0.35 0.0
1 0.35 0.0
1.2 0.35 0.0
1.4 0.35 0.0
1.6 0.35 0.0
1.8 0.35 0.0
2 0.35 0.0
0 0.375 0.0
0.2 0.375 0.0
0.4 0.375 0.0
0.6 0.375 0.0
0.8 0.375 0.0
1 0.375 0.0
1.2 0.375 0.0
1.4 0.375 0.0
1.6 0.375 0.0
1.8 0.375 0.0
2 0.375 0.0
0 0.4 0.0
0.2 0.4 0.0
0.4 0.4 0.0
0.6 0.4 0.0
0.8 0.4 0.0
1 0.4 0.0
1.2 0.4 0.0
1.4 0.4 0.0
1.6 0.4 0.0
1.8 0.4 0.0
2 0.4 0.0
0 0.425 0.0
0.2 0.425 0.0
0.4 0.425 0.0
0.6 0.425 0.0
0.8 0.425 0.0
1 0.425 0.0
1.2 0.425 0.0
1.4 0.425 0.0
1.6 0.425 0.0
1.8 0.425 0.0
2 0.425 0.0
0 0.45 0.0
0.2 0.45 0.0
0.4 0.45 0.0
0.6 0.45 0.0
0.8 0.45 0.0
1 0.45 0.0
1.2 0.45 0.0
1.4 0.45 0.0
1.6 0.45 0.0
1.8 0.45 0.0
2 0.45 0.0
0 0.475 0.0
0.2 0.475 0.0
0.4 0.475 0.0
0.6 0.475 0.0
0.8 0.475 0.0
1 0.475 0.0
1.2 0.475 0.0
1.4 0.475 0.0
1.6 0.475 0.0
1.8 0.475 0.0
2 0.475 0.0
0 0.5 0.0
0.2 0.5 0.0
0.4 0.5 0.0
0.6 0.5 0.0
0.8 0.5 0.0
1 0.5 0.0
1.2 0.5 0.0
1.4 0.5 0.0
1.6 0.5 0.0
1.8 0.5 0.0
2 0.5 0.0
0 0.525 0.0
0.2 0.525 0.0
0.4 0.525 0.0
0.6 0.525 0.0
0.8 0.525 0.0
1 0.525 0.0
1.2 0.525 0.0
1.4 0.525 0.0
1.6 0.525 0.0
1.8 0.525 0.0
2 0.525 0.0
0 0.55 0.0
0.2 0.55 0.0
0.4 0.55 0.0
0.6 0.55 0.0
0.8 0.55 0.0
1 0.55 0.0
1.2 0.55 0.0
1.4 0.55 0.0
1.6 0.55 0.0
1.8 0.55 0.0
2 0.55 0.0
0 0.575 0.0
0.2 0.575 0.0
0.4 0.575 0.0
0.6 0.575 0.0
0.8 0.575 0.0
1 0.575 0.0
1.2 0.575 0.0
1.4 0.575 0.0
1.6 0.575 0.0
1.8 0.575 0.0
2 0.575 0.0
0 0.6 0.0
0.2 0.6 0.0
0.4 0.6 0.0
0.6 0.6 0.0
0.8 0.6 0.0
1 0.6 0.0
1.2 0.6 0.0
1.4 0.6 0.0
1.6 0.6 0.0
1.8 0.6 0.0
2 0.6 0.0
0 0.625 0.0
0.2 0.625 0.0
0.4 0.625 0.0
0.6 0.625 0.0
0.8 0.625 0.0
1 0.625 0.0
1.2 0.625 0.0
1.4 0.625 0.0
1.6 0.625 0.0
1.8 0.625 0.0
2 0.625 0.0
0 0.65 0.0
0.2 0.65 0.0
0.4 0.65 0.0
0.6 0.65 0.0
0.8 0.65 0.0
1 0.65 0.0
1.2 0.65 0.0
1.4 0.65 0.0
1.6 0.65 0.0
1.8 0.65 0.0
2 0.65 0.0
0 0.675 0.0
0.2 0.675 0.0
0.4 0.675 0.0
0.6 0.675 0.0
0.8 0.675 0.0
1 0.675 0.0
1.2 0.675 0.0
1.4 0.675 0.0
1.6 0.675 0.0
1.8 0.675 0.0
2 0.675 0.0
0 0.7 0.0
0.2 0.7 0.0
0.4 0.7 0.0
0.6 0.7 0.0
0.8 0.7 0.0
1 0.7 0.0
1.2 0.7 0.0
1.4 0.7 0.0
1.6 0.7 0.0
1.8 0.7 0.0
2 0.7 0.0
0 0.725 0.0
0.2 0.725 0.0
0.4 0.725 0.0
0.6 0.725 0.0
0.8 0.725 0.0
1 0.725 0.0
1.2 0.725 0.0
1.4 0.725 0.0
1.6 0.725 0.0
1.8 0.725 0.0
2 0.725 0.0
0 0.75 0.0
0.2 0.75 0.0
0.4 0.75 0.0
0.6 0.75 0.0
0.8 0.75 0.0
1 0.75 0.0
1.2 0.75 0.0
1.4 0.75 0.0
1.6 0.75 0.0
1.8 0.75 0.0
2 0.75 0.0
0 0.775 0.0
0.2 0.775 0.0
0.4 0.775 0.0
0.6 0.775 0.0
0.8 0.775 0.0
1 0.775 0.0
1.2 0.775 0.0
1.4 0.775 0.0
1.6 0.775 0.0
1.8 0.775 0.0
2 0.775 0.0
0 0.8 0.0
0.2 0.8 0.0
0.4 0.8 0.0
0.6 0.8 0.0
0.8 0.8 0.0
1 0.8 0.0
1.2 0.8 0.0
1.4 0.8 0.0
1.6 0.8 0.0
1.8 0.8 0.0
2 0.8 0.0
0 0.825 0.0
0.2 0.825 0.0
0.4 0.825 0.0
0.6 0.825 0.0
0.8 0.825 0.0
1 0.825 0.0
1.2 0.825 0.0
1.4 0.825 0.0
1.6 0.825 0.0
1.8 0.825 0.0
2 0.825 0.0
0 0.85 0.0
0.2 0.85 0.0
0.4 0.85 0.0
0.6 0.85 0.0
0.8 0.85 0.0
1 0.85 0.0
1.2 0.85 0.0
1.4 0.85 0.0
1.6 0.85 0.0
1.8 0.85 0.0
2 0.85 0.0
0 0.875 0.0
0.2 0.875 0.0
0.4 0.875 0.0
0.6 0.875 0.0
0.8 0.875 0.0
1 0.875 0.0
1.2 0.875 0.0
1.4 0.875 0.0
1.6 0.875 0.0
1.8 0.875 0.0
2 0.875 0.0
0 0.9 0.0
0.2 0.9 0.0
0.4 0.9 0.0
0.6 0.9 0.0
0.8 0.9 0.0
1 0.9 0.0
1.2 0.9 0.0
1.4 0.9 0.0
1.6 0.9 0.0
1.8 0.9 0.0
2 0.9 0.0
0 0.925 0.0
0.2 0.925 0.0
0.4 0.925 0.0
0.6 0.925 0.0
0.8 0.925 0.0
1 0.925 0.0
1.2 0.925 0.0
1.4 0.925 0.0
1.6 0.925 0.0
1.8 0.925 0.0
2 0.925 0.0
0 0.95 0.0
0.2 0.95 0.0
0.4 0.95 0.0
0.6 0.95 0.0
0.8 0.95 0.0
1 0.95 0.0
1.2 0.95 0.0
1.4 0.95 0.0
1.6 0.95 0.0
1.8 0.95 0.0
2 0.95 0.0
0 0.975 0.0
0.2 0.975 0.0
0.4 0.975 0.0
0.6 0.975 0.0
0.8 0.975 0.0
1 0.975 0.0
1.2 0.975 0.0
1.4 0.975 0.0
1.6 0.975 0.0
1.8 0.975 0.0
2 0.975 0.0
0 1 0.0
0.2 1 0.0
0.4 1 0.0
0.6 1 0.0
0.8 1 0.0
1 1 0.0
1.2 1 0.0
1.4 1 0.0
1.6 1 0.0
1.8 1 0.0
2 1 0.0
CELLS 400 2000
4 0 1 12 11
4 1 2 13 12
4 2 3 14 13
4 3 4 15 14
4 4 5 16 15
4 5 6 17 16
4 6 7 18 17
4 7 8 19 18
4 8 9 20 19
4 9 10 21 20
4 11 12 23 22
4 12 13 24 23
4 13 14 25 24
4 14 15 26 25
4 15 16 27 26
4 16 17 28 27
4 17 18 29 28
4 18 19 30 29
4 19 20 31 30
4 20 21 32 31
4 22 23 34 33
4 23 24 35 34
4 24 25 36 35
4 25 26 37 36
4 26 27 38 37
4 27 28 39 38
4 28 29 40 39
4 29 30 41 40
4 30 31 42 41
4 31 32 43 42
4 33 34 45 44
4 34 35 46 45
4 35 36 47 46
4 36 37 48 47
4 37 38 49 48
4 38 39 50 49
4 39 40 51 50
4 40 41 52 51
4 41 42 53 52
4 42 43 54 53
4 44 45 56 55
4 45 46 57 56
4 46 47 58 57
4 47 48 59 58
4 48 49 60 59
4 49 50 61 60
4 50 51 62 61
4 51 52 63 62
4 52 53 64 63
4 53 54 65 64
4 55 56 67 66
4 56 57 68 67
4 57 58 69 68
4 58 59 70 69
4 59 60 71 70
4 60 61 72 71
4 61 62 73 72
4 62 63 74 73
4 63 64 75 74
4 64 65 76 75
4 66 67 78 77
4 67 68 79 78
4 68 69 80 79
4 69 70 81 80
4 70 71 82 81
4 71 72 83 82
4 72 73 84 83
4 73 74 85 84
4 74 75 86 85
4 75 76 87 86
4 77 78 89 88
4 78 79 90 89
4 79 80 91 90
4 80 81 92 91
4 81 82 93 92
4 82 83 94 93
4 83 84 95 94
4 84 85 96 95
4 85 86 97 96
4 86 87 98 97
4 88 89 100 99
4 89 90 101 100
4 90 91 102 101
4 91 92 103 102
4 92 93 104 103
4 93 94 105 104
4 94 95 106 105
4 95 96 107 106
4 96 97 108 107
4 97 98 109 108
4 99 100 111 110
4 100 101 112 111
4 101 102 113 112
4 102 103 114 113
4 103 104 115 114
4 104 105 116 115
4 105 106 117 116
4 106 107 118 117
4 107 108 119 118
4 108 109 120 119
4 110 111 122 121
4 111 112 123 122
4 112 113 124 123
4 113 114 125 124
4 114 115 126 125
4 115 116 127 126
4 116 117 128 127
4 117 118 129 128
4 118 119 130 129
4 119 120 131 130
4 121 122 133 132
4 122 123 134 133
4 123 124 135 134
4 124 125 136 135
4 125 126 137 136
4 126 127 138 137
4 127 128 139 138
4 128 129 140 139
4 129 130 141 140
4 130 131 142 141
4 132 133 144 143
4 133 134 145 144
4 134 135 146 145
4 135 136 147 146
4 136 137 148 147
4 137 138 149 148
4 138 139 150 149
4 139 140 151 150
4 140 141 152 151
4 141 142 153 152
4 143 144 155 154
4 144 145 156 155
4 145 146 157 156
4 146 147 158 157
4 147 148 159 158
4 148 149 160 159
4 149 150 161 160
4 150 151 162 161
4 151 152 163 162
4 152 153 164 163
4 154 155 166 165
4 155 156 167 166
4 156 157 168 167
4 157 158 169 168
4 158 159 170 169
4 159 160 171 170
4 160 161 172 171
4 161 162 173 172
4 162 163 174 173
4 163 164 175 174
4 165 166 177 176
4 166 167 178 177
4 167 168 179 178
4 168 169 180 179
4 169 170 181 180
4 170 171 182 181
4 171 172 183 182
4 172 173 184 183
4 173 174 185 184
4 174 175 186 185
4 176 177 188 187
4 177 178 189 188
4 178 179 190 189
4 179 180 191 190
4 180 181 192 191
4 181 182 193 192
4 182 183 194 193
4 183 184 195 194
4 184 185 196 195
4 185 186 197 196
4 187 188 199 198
4 188 189 200 199
4 189 190 201 200
4 190 191 202 201
4 191 192 203 202
4 192 193 204 203
4 193 194 205 204
4 194 195 206 205
4 195 196 207 206
4 196 197 208 207
4 198 199 210 209
4 199 200 211 210
4 200 201 212 211
4 201 202 213 212
4 202 203 214 213
4 203 204 215 214
4 204 205 216 215
4 205 206 217 216
4 206 207 218 217
4 207 208 219 218
4 209 210 221 220
4 210 211 222 221
4 211 212 223 222
4 212 213 224 223
4 213 214 225 224
4 214 215 226 225
4 215 216 227 226
4 216 217 228 227
4 217 218 229 228
4 218 219 230 229
4 220 221 232 231
4 221 222 233 232
4 222 223 234 233
4 223 224 235 234
4 224 225 236 235
4 225 226 237 236
4 226 227 238 237
4 227 228 239 238
4 228 229 240 239
4 229 230 241 240
4 231 232 243 242
4 232 233 244 243
4 233 234 245 244
4 234 235 246 245
4 235 236 247 246
4 236 237 248 247
4 237 238 249 248
4 238 239 250 249
4 239 240 251 250
4 240 241 252 251
4 242 243 254 253
4 243 244 255 254
4 244 245 256 255
4 245 246 257 256
4 246 247 258 257
4 247 248 259 258
4 248 249 260 259
4 249 250 261 260
4 250 251 262 261
4 251 252 263 262
4 253 254 265 264
4 254 255 266 265
4 255 256 267 266
4 256 257 268 267
4 257 258 269 268
4 258 259 270 269
4 259 260 271 270
4 260 261 272 271
4 261 262 273 272
4 262 263 274 273
4 264 265 276 275
4 265 266 277 276
4 266 267 278 277
4 267 268 279 278
4 268 269 280 279
4 269 270 281 280
4 270 271 282 281
4 271 272 283 282
4 272 273 284 283
4 273 274 285 284
4 275 276 287 286
4 276 277 288 287
4 277 278 289 288
4 278 279 290 289
4 279 280 291 290
4 280 281 292 291
4 281 282 293 292
4 282 283 294 293
4 283 284 295 294
4 284 285 296 295
4 286 287 298 297
4 287 288 299 298
4 288 289 300 299
4 289 290 301 300
4 290 291 302 301
4 291 292 303 302
4 292 293 304 303
4 293 294 305 304
4 294 295 306 305
4 295 296 307 306
4 297 298 309 308
4 298 299 310 309
4 299 300 311 310
4 300 301 312 311
4 301 302 313 312
4 302 303 314 313
4 303 304 315 314
4 304 305 316 315
4 305 306 317 316
4 306 307 318 317
4 308 309 320 319
4 309 310 321 320
4 310 311 322 321
4 311 312 323 322
4 312 313 324 323
4 313 314 325 324
4 314 315 326 325
4 315 316 327 326
4 316 317 328 327
4 317 318 329 328
4 319 320 331 330
4 320 321 332 331
4 321 322 333 332
4 322 323 334 333
4 323 324 335 334
4 324 325 336 335
4 325 326 337 336
4 326 327 338 337
4 327 328 339 338
4 328 329 340 339
4 330 331 342 341
4 331 332 343 342
4 332 333 344 343
4 333 334 345 344
4 334 335 346 345
4 335 336 347 346
4 336 337 348 347
4 337 338 349 348
4 338 339 350 349
4 339 340 351 350
4 341 342 353 352
4 342 343 354 353
4 343 344 355 354
4 344 345 356 355
4 345 346 357 356
4 346 347 358 357
4 347 348 359 358
4 348 349 360 359
4 349 350 361 360
4 350 351 362 361
4 352 353 364 363
4 353 354 365 364
4 354 355 366 365
4 355 356 367 366
4 356 357 368 367
4 357 358 369 368
4 358 359 370 369
4 359 360 371 370
4 360 361 372 371
4 361 362 373 372
4 363 364 375 374
4 364 365 376 375
4 365 366 377 376
4 366 367 378 377
4 367 368 379 378
4 368 369 380 379
4 369 370 381 380
4 370 371 382 381
4 371 372 383 382
4 372 373 384 383
4 374 375 386 385
4 375 376 387 386
4 376 377 388 387
4 377 378 389 388
4 378 379 390 389
4 379 380 391 390
4 380 381 392 391
4 381 382 393 392
4 382 383 394 393
4 383 384 395 394
4 385 386 397 396
4 386 387 398 397
4 387 388 399 398
4 388 389 400 399
4 389 390 401 400
4 390 391 402 401
4 391 392 403 402
4 392 393 404 403
4 393 394 405 404
4 394 395 406 405
4 396 397 408 407
4 397 398 409 408
4 398 399 410 409
4 399 400 411 410
4 400 401 412 411
4 401 402 413 412
4 402 403 414 413
4 403 404 415 414
4 404 405 416 415
4 405 406 417 416
4 407 408 419 418
4 408 409 420 419
4 409 410 421 420
4 410 411 422 421
4 411 412 423 422
4 412 413 424 423
4 413 414 425 424
4 414 415 426 425
4 415 416 427 426
4 416 417 428 427
4 418 419 430 429
4 419 420 431 430
4 420 421 432 431
4 421 422 433 432
4 422 423 434 433
4 423 424 435 434
4 424 425 436 435
4 425 426 437 436
4 426 427 438 437
4 427 428 439 438
4 429 430 441 440
4 430 431 442 441
4 431 432 443 442
4 432 433 444 443
4 433 434 445 444
4 434 435 446 445
4 435 436 447 446
4 436 437 448 447
4 437 438 449 448
4 438 439 450 449
CELL_TYPES 400
7
7
7
7
7
7
7
7
7
7
7
7
7
7
7
7
7
7
7
7
7
7
7
7
7
7
7
7
7
7
7
7
7
7
7
7
7
7
7
7
7
7
7
7
7
7
7
7
7
7
7
7
7
7
7
7
7
7
7
7
7
7
7
7
7
7
7
7
7
7
7
7
7
7
7
7
7
7
7
7
7
7
7
7
7
7
7
7
7
7
7
7
7
7
7
7
7
7
7
7
7
7
7
7
7
7
7
7
7
7
7
7
7
7
7
7
7
7
7
7
7
7
7
7
7
7
7
7
7
7
7
7
7
7
7
7
7
7
7
7
7
7
7
7
7
7
7
7
7
7
7
7
7
7
7
7
7
7
7
7
7
7
7
7
7
7
7
7
7
7
7
7
7
7
7
7
7
7
7
7
7
7
7
7
7
7
7
7
7
7
7
7
7
7
7
7
7
7
7
7
7
7
7
7
7
7
7
7
7
7
7
7
7
7
7
7
7
7
7
7
7
7
7
7
7
7
7
7
7
7
7
7
7
7
7
7
7
7
7
7
7
7
7
7
7
7
7
7
7
7
7
7
7
7
7
7
7
7
7
7
7
7
7
7
7
7
7
7
7
7
7
7
7
7
7
7
7
7
7
7
7
7
7
7
7
7
7
7
7
7
7
7
7
7
7
7
7
7
7
7
7
7
7
7
7
7
7
7
7
7
7
7
7
7
7
7
7
7
7
7
7
7
7
7
7
7
7
7
7
7
7
7
7
7
7
7
7
7
7
7
7
7
7
7
7
7
7
7
7
7
7
7
7
7
7
7
7
7
7
7
7
7
7
7
7
7
7
7
7
7
7
7
7
7
7
7
7
7
7
7
7
7
7
7
7
7
7
7
7
7
7
7
7
7
7
7
7
7
7
7
CELL_DATA 400
SCALARS Uy float 1
LOOKUP_TABLE default
-6.4441981e-09
-5.4165667e-09
-5.056302e-10
-7.3489322e-10
3.2970269e-10
-3.297027e-10
7.3489318e-10
5.0563018e-10
5.4165666e-09
6.4441969e-09
-2.9452925e-08
-2.742342e-08
-3.9425576e-09
-3.2091138e-09
9.2404183e-10
-9.240419e-10
3.2091138e-09
3.9425575e-09
2.742342e-08
2.9452922e-08
-6.9116737e-08
-6.8698423e-08
-1.2004259e-08
-7.401426e-09
1.2376472e-09
-1.2376473e-09
7.4014259e-09
1.2004259e-08
6.8698422e-08
6.9116734e-08
-1.1802421e-07
-1.2203771e-07
-2.3762065e-08
-1.2756117e-08
1.1309745e-09
-1.1309748e-09
1.2756117e-08
2.3762065e-08
1.2203771e-07
1.180242e-07
-1.6954683e-07
-1.8000435e-07
-3.7767927e-08
-1.8779476e-08
6.7825403e-10
-6.7825454e-10
1.8779475e-08
3.7767927e-08
1.8000435e-07
1.6954683e-07
-2.1945544e-07
-2.3748961e-07
-5.277772e-08
-2.5077964e-08
-1.239984e-11
1.2399153e-11
2.5077964e-08
5.277772e-08
2.3748961e-07
2.1945544e-07
-2.6469092e-07
-2.9068496e-07
-6.768831e-08
-3.1265204e-08
-8.4826207e-10
8.4826122e-10
3.1265204e-08
6.768831e-08
2.9068496e-07
2.6469092e-07
-3.0286743e-07
-3.3655465e-07
-8.1494164e-08
-3.6962333e-08
-1.7456056e-09
1.7456046e-09
3.6962333e-08
8.1494164e-08
3.3655464e-07
3.0286743e-07
-3.3222221e-07
-3.7277612e-07
-9.3318759e-08
-4.1824784e-08
-2.6264994e-09
2.6264983e-09
4.1824784e-08
9.3318759e-08
3.7277612e-07
3.3222221e-07
-3.5158063e-07
-3.9771668e-07
-1.024465e-07
-4.5560387e-08
-3.4214485e-09
3.4214474e-09
4.5560387e-08
1.024465e-07
3.9771668e-07
3.5158063e-07
-3.6028639e-07
-4.1037199e-07
-1.0833766e-07
-4.7939507e-08
-4.0722483e-09
4.0722472e-09
4.7939507e-08
1.0833766e-07
4.1037199e-07
3.6028639e-07
-3.581314e-07
-4.1029713e-07
-1.1063283e-07
-4.8801264e-08
-4.5337344e-09
4.5337334e-09
4.8801264e-08
1.1063283e-07
4.1029713e-07
3.5813139e-07
-3.4529567e-07
-3.9754335e-07
-1.0915113e-07
-4.8056805e-08
-4.7747504e-09
4.7747496e-09
4.8056805e-08
1.0915113e-07
3.9754335e-07
3.4529567e-07
-3.2229463e-07
-3.725995e-07
-1.0388347e-07
-4.568967e-08
-4.778533e-09
4.7785325e-09
4.5689671e-08
1.0388347e-07
3.7259949e-07
3.2229463e-07
-2.8993088e-07
-3.3633571e-07
-9.4981277e-08
-4.1753466e-08
-4.5425365e-09
4.5425364e-09
4.1753466e-08
9.4981277e-08
3.3633571e-07
2.8993088e-07
-2.4924954e-07
-2.8994907e-07
-8.2741642e-08
-3.6367183e-08
-4.0777171e-09
4.0777175e-09
3.6367184e-08
8.2741641e-08
2.8994907e-07
2.4924954e-07
-2.0149651e-07
-2.3491067e-07
-6.7589418e-08
-2.9708502e-08
-3.4073273e-09
3.4073281e-09
2.9708502e-08
6.7589417e-08
2.3491067e-07
2.0149651e-07
-1.4807904e-07
-1.7291417e-07
-5.005699e-08
-2.2005397e-08
-2.5652832e-09
2.5652838e-09
2.2005397e-08
5.0056989e-08
1.7291417e-07
1.4807904e-07
-9.0528191e-08
-1.058253e-07
-3.0762194e-08
-1.352638e-08
-1.5941741e-09
1.5941739e-09
1.3526381e-08
3.0762193e-08
1.0582529e-07
9.052819e-08
-3.0462515e-08
-3.5632123e-08
-1.0384854e-08
-4.5696717e-09
-5.4298974e-10
5.4298904e-10
4.5696719e-09
1.0384854e-08
3.5632122e-08
3.0462513e-08
3.0447276e-08
3.5604054e-08
1.0357637e-08
4.5483814e-09
5.3535689e-10
-5.3535673e-10
-4.5483814e-09
-1.0357637e-08
-3.5604055e-08
-3.0447278e-08
9.0513141e-08
1.0579757e-07
3.0735297e-08
1.3505337e-08
1.5866299e-09
-1.5866288e-09
-1.3505337e-08
-3.0735297e-08
-1.0579757e-07
-9.0513143e-08
1.4806436e-07
1.7288713e-07
5.0030726e-08
2.1984842e-08
2.5579141e-09
-2.5579128e-09
-2.1984843e-08
-5.0030726e-08
-1.7288713e-07
-1.4806437e-07
2.0148238e-07
2.3488462e-07
6.7564085e-08
2.9688667e-08
3.4002159e-09
-3.4002145e-09
-2.9688667e-08
-6.7564086e-08
-2.3488463e-07
-2.0148238e-07
2.4923612e-07
2.8992432e-07
8.2717518e-08
3.6348283e-08
4.0709403e-09
-4.0709387e-09
-3.6348283e-08
-8.2717519e-08
-2.8992432e-07
-2.4923612e-07
2.8991831e-07
3.3631252e-07
9.4958612e-08
4.1735694e-08
4.5361639e-09
-4.5361624e-09
-4.1735694e-08
-9.4958612e-08
-3.3631252e-07
-2.8991832e-07
3.2228304e-07
3.7257809e-07
1.0386248e-07
4.5673196e-08
4.7726252e-09
-4.7726238e-09
-4.5673196e-08
-1.0386248e-07
-3.7257809e-07
-3.2228304e-07
3.4528516e-07
3.9752391e-07
1.09132e-07
4.8041768e-08
4.7693576e-09
-4.7693564e-09
-4.8041769e-08
-1.09132e-07
-3.9752391e-07
-3.4528516e-07
3.5812203e-07
4.1027979e-07
1.1061568e-07
4.8787772e-08
4.5288954e-09
-4.5288942e-09
-4.8787772e-08
-1.1061568e-07
-4.1027979e-07
-3.5812203e-07
3.6027821e-07
4.1035683e-07
1.0832259e-07
4.7927633e-08
4.067989e-09
-4.0679875e-09
-4.7927632e-08
-1.0832259e-07
-4.1035683e-07
-3.6027821e-07
3.5157365e-07
3.9770373e-07
1.0243354e-07
4.5550166e-08
3.4177816e-09
-3.4177796e-09
-4.5550166e-08
-1.0243354e-07
-3.9770373e-07
-3.5157365e-07
3.3221642e-07
3.7276535e-07
9.3307911e-08
4.1816213e-08
2.6234237e-09
-2.6234217e-09
-4.1816213e-08
-9.3307911e-08
-3.7276536e-07
-3.3221642e-07
3.0286277e-07
3.3654599e-07
8.1485365e-08
3.695537e-08
1.7431061e-09
-1.7431039e-09
-3.695537e-08
-8.1485365e-08
-3.3654599e-07
-3.0286277e-07
2.6468733e-07
2.9067828e-07
6.768145e-08
3.1259768e-08
8.4630951e-10
-8.4630706e-10
-3.1259768e-08
-6.768145e-08
-2.9067828e-07
-2.6468733e-07
2.1945282e-07
2.3748473e-07
5.2772641e-08
2.5073934e-08
1.0951526e-11
-1.0948746e-11
-2.5073935e-08
-5.2772641e-08
-2.3748473e-07
-2.1945282e-07
1.6954504e-07
1.8000103e-07
3.7764425e-08
1.8776696e-08
-6.7925423e-10
6.7925701e-10
-1.8776697e-08
-3.7764426e-08
-1.8000103e-07
-1.6954504e-07
1.1802312e-07
1.2203569e-07
2.3759898e-08
1.2754399e-08
-1.1315946e-09
1.1315967e-09
-1.27544e-08
-2.3759898e-08
-1.2203569e-07
-1.1802312e-07
6.9116187e-08
6.8697412e-08
1.2003143e-08
7.4005441e-09
-1.2379672e-09
1.2379684e-09
-7.4005447e-09
-1.2003143e-08
-6.8697412e-08
-6.9116187e-08
2.9452729e-08
2.7423068e-08
3.9421513e-09
3.2087961e-09
-9.2415842e-10
9.2415889e-10
-3.2087965e-09
-3.9421513e-09
-2.7423068e-08
-2.9452729e-08
6.4441656e-09
5.4165116e-09
5.0556039e-10
7.3483998e-10
-3.2972266e-10
3.2972272e-10
-7.3484015e-10
-5.0556041e-10
-5.4165116e-09
-6.4441654e-09
SCALARS Ux float 1
LOOKUP_TABLE default
0.012331425
0.012331633
0.012331669
0.012331677
0.012331682
0.012331682
0.012331677
0.012331669
0.012331633
0.012331425
0.036995709
0.0369962
0.036996298
0.036996321
0.036996334
0.036996334
0.036996321
0.036996298
0.0369962
0.036995709
0.061662983
0.061663647
0.061663795
0.06166383
0.061663851
0.061663851
0.06166383
0.061663795
0.061663647
0.061662983
0.086335306
0.086336054
0.086336239
0.086336282
0.086336308
0.086336308
0.086336282
0.086336239
0.086336054
0.086335306
0.11101471
0.11101547
0.11101568
0.11101572
0.11101575
0.11101575
0.11101572
0.11101568
0.11101547
0.11101471
0.13570318
0.13570389
0.13570411
0.13570416
0.13570419
0.13570419
0.13570416
0.13570411
0.13570389
0.13570318
0.16040266
0.16040327
0.16040349
0.16040353
0.16040356
0.16040356
0.16040353
0.16040349
0.16040327
0.16040266
0.185115
0.18511549
0.1851157
0.18511572
0.18511576
0.18511576
0.18511572
0.1851157
0.18511549
0.185115
0.20984199
0.20984233
0.20984252
0.20984253
0.20984256
0.20984256
0.20984253
0.20984252
0.20984233
0.20984199
0.23458533
0.23458551
0.23458567
0.23458566
0.23458569
0.23458569
0.23458566
0.23458567
0.23458551
0.23458533
0.25934662
0.25934662
0.25934675
0.25934672
0.25934675
0.25934675
0.25934672
0.25934675
0.25934662
0.25934662
0.28412733
0.28412716
0.28412726
0.2841272
0.28412723
0.28412723
0.2841272
0.28412726
0.28412716
0.28412733
0.30892883
0.3089285
0.30892856
0.30892848
0.3089285
0.3089285
0.30892848
0.30892856
0.3089285
0.30892883
0.33375235
0.33375187
0.33375189
0.33375179
0.33375181
0.33375181
0.33375179
0.33375189
0.33375187
0.33375235
0.358599
0.35859837
0.35859836
0.35859824
0.35859826
0.35859826
0.35859824
0.35859836
0.35859837
0.358599
0.38346972
0.38346896
0.38346893
0.38346879
0.3834688
0.3834688
0.38346879
0.38346893
0.38346896
0.38346972
0.40836531
0.40836446
0.4083644
0.40836424
0.40836425
0.40836425
0.40836424
0.4083644
0.40836446
0.40836531
0.43328643
0.4332855
0.43328542
0.43328525
0.43328526
0.43328526
0.43328525
0.43328542
0.4332855
0.43328643
0.45823358
0.45823259
0.4582325
0.45823232
0.45823233
0.45823233
0.45823232
0.4582325
0.45823259
0.45823358
0.48320706
0.48320605
0.48320595
0.48320577
0.48320578
0.48320578
0.48320577
0.48320595
0.48320605
0.48320706
0.50820706
0.50820605
0.50820595
0.50820577
0.50820578
0.50820578
0.50820577
0.50820595
0.50820605
0.50820706
0.53323358
0.53323259
0.5332325
0.53323232
0.53323233
0.53323233
0.53323232
0.5332325
0.53323259
0.53323358
0.55828643
0.5582855
0.55828542
0.55828525
0.55828526
0.55828526
0.55828525
0.55828542
0.5582855
0.55828643
0.58336531
0.58336446
0.5833644
0.58336424
0.58336425
0.58336425
0.58336424
0.5833644
0.58336446
0.58336531
0.60846971
0.60846896
0.60846893
0.60846878
0.6084688
0.6084688
0.60846878
0.60846893
0.60846896
0.60846971
0.633599
0.63359837
0.63359836
0.63359824
0.63359826
0.63359826
0.63359824
0.63359836
0.63359837
0.633599
0.65875235
0.65875186
0.65875189
0.65875179
0.65875181
0.65875181
0.65875179
0.65875189
0.65875186
0.65875235
0.68392883
0.6839285
0.68392856
0.68392848
0.6839285
0.6839285
0.68392848
0.68392856
0.6839285
0.68392883
0.70912733
0.70912716
0.70912726
0.7091272
0.70912723
0.70912723
0.7091272
0.70912726
0.70912716
0.70912733
0.73434662
0.73434662
0.73434675
0.73434672
0.73434675
0.73434675
0.73434672
0.73434675
0.73434662
0.73434662
0.75958533
0.75958551
0.75958567
0.75958566
0.75958569
0.75958569
0.75958566
0.75958567
0.75958551
0.75958533
0.78484199
0.78484233
0.78484252
0.78484253
0.78484256
0.78484256
0.78484253
0.78484252
0.78484233
0.78484199
0.810115
0.81011549
0.81011569
0.81011572
0.81011575
0.81011575
0.81011572
0.81011569
0.81011549
0.810115
0.83540266
0.83540327
0.83540349
0.83540353
0.83540356
0.83540356
0.83540353
0.83540349
0.83540327
0.83540266
0.86070318
0.86070389
0.86070411
0.86070415
0.86070419
0.86070419
0.86070415
0.86070411
0.86070389
0.86070318
0.88601471
0.88601547
0.88601568
0.88601572
0.88601575
0.88601575
0.88601572
0.88601568
0.88601547
0.88601471
0.91133531
0.91133605
0.91133624
0.91133628
0.91133631
0.91133631
0.91133628
0.91133624
0.91133605
0.91133531
0.93666298
0.93666365
0.93666379
0.93666383
0.93666385
0.93666385
0.93666383
0.93666379
0.93666365
0.93666298
0.96199571
0.9619962
0.9619963
0.96199632
0.96199633
0.96199633
0.96199632
0.9619963
0.9619962
0.96199571
0.98733143
0.98733163
0.98733167
0.98733168
0.98733168
0.98733168
0.98733168
0.98733167
0.98733163
0.98733143
SCALARS p float 1
LOOKUP_TABLE default
0
-8.3149439e-07
-1.7742486e-06
-2.6483145e-06
-3.597078e-06
-4.4767631e-06
-5.4255266e-06
-6.2995925e-06
-7.2423467e-06
-8.0738411e-06
-8.1891978e-09
-8.4048393e-07
-1.7762627e-06
-2.6491126e-06
-3.5971474e-06
-4.4766937e-06
-5.4247285e-06
-6.2975784e-06
-7.2333572e-06
-8.0656519e-06
-1.3653741e-08
-8.4701289e-07
-1.7782995e-06
-2.6496816e-06
-3.5973744e-06
-4.4764667e-06
-5.4241596e-06
-6.2955416e-06
-7.2268282e-06
-8.0601874e-06
-1.5934941e-08
-8.4980661e-07
-1.779945e-06
-2.6500303e-06
-3.59762e-06
-4.4762211e-06
-5.4238108e-06
-6.2938961e-06
-7.2240345e-06
-8.0579062e-06
-1.6366211e-08
-8.5003359e-07
-1.7813151e-06
-2.6502444e-06
-3.5978494e-06
-4.4759917e-06
-5.4235967e-06
-6.292526e-06
-7.2238075e-06
-8.0574749e-06
-1.5603609e-08
-8.4839523e-07
-1.7824855e-06
-2.6503388e-06
-3.5980686e-06
-4.4757725e-06
-5.4235023e-06
-6.2913556e-06
-7.2254459e-06
-8.0582375e-06
-1.392862e-08
-8.4523059e-07
-1.7834703e-06
-2.6503134e-06
-3.5982802e-06
-4.4755609e-06
-5.4235278e-06
-6.2903708e-06
-7.2286105e-06
-8.0599125e-06
-1.1577248e-08
-8.4084271e-07
-1.7842796e-06
-2.6501769e-06
-3.5984826e-06
-4.4753585e-06
-5.4236642e-06
-6.2895615e-06
-7.2329984e-06
-8.0622639e-06
-8.774846e-09
-8.3554538e-07
-1.7849308e-06
-2.6499449e-06
-3.5986739e-06
-4.4751672e-06
-5.4238962e-06
-6.2889103e-06
-7.2382957e-06
-8.0650663e-06
-5.7140048e-09
-8.2963708e-07
-1.785444e-06
-2.6496357e-06
-3.5988528e-06
-4.4749883e-06
-5.4242055e-06
-6.2883971e-06
-7.244204e-06
-8.0681271e-06
-2.552145e-09
-8.2339097e-07
-1.7858387e-06
-2.6492689e-06
-3.5990183e-06
-4.4748228e-06
-5.4245723e-06
-6.2880024e-06
-7.2504501e-06
-8.071289e-06
5.8214927e-10
-8.1705525e-07
-1.7861338e-06
-2.6488648e-06
-3.5991696e-06
-4.4746715e-06
-5.4249763e-06
-6.2877074e-06
-7.2567859e-06
-8.0744233e-06
3.5836428e-09
-8.1085414e-07
-1.7863471e-06
-2.648444e-06
-3.5993058e-06
-4.4745353e-06
-5.4253971e-06
-6.287494e-06
-7.262987e-06
-8.0774248e-06
6.3667597e-09
-8.0498776e-07
-1.7864953e-06
-2.6480263e-06
-3.5994264e-06
-4.4744147e-06
-5.4258149e-06
-6.2873458e-06
-7.2688533e-06
-8.0802079e-06
8.8626859e-09
-7.9963176e-07
-1.7865932e-06
-2.64763e-06
-3.5995308e-06
-4.4743103e-06
-5.4262111e-06
-6.2872479e-06
-7.2742094e-06
-8.0827038e-06
1.1016851e-08
-7.9493703e-07
-1.7866541e-06
-2.6472722e-06
-3.5996186e-06
-4.4742226e-06
-5.4265689e-06
-6.287187e-06
-7.2789041e-06
-8.084858e-06
1.2786819e-08
-7.9102964e-07
-1.7866892e-06
-2.6469675e-06
-3.5996892e-06
-4.4741519e-06
-5.4268736e-06
-6.2871519e-06
-7.2828115e-06
-8.0866279e-06
1.4140593e-08
-7.8801056e-07
-1.7867074e-06
-2.6467279e-06
-3.5997425e-06
-4.4740987e-06
-5.4271132e-06
-6.2871337e-06
-7.2858306e-06
-8.0879817e-06
1.5055299e-08
-7.8595567e-07
-1.7867158e-06
-2.646563e-06
-3.5997781e-06
-4.474063e-06
-5.4272782e-06
-6.2871253e-06
-7.2878854e-06
-8.0888964e-06
1.5516215e-08
-7.8491557e-07
-1.7867188e-06
-2.6464789e-06
-3.599796e-06
-4.4740452e-06
-5.4273622e-06
-6.2871223e-06
-7.2889255e-06
-8.0893573e-06
1.5516137e-08
-7.8491559e-07
-1.7867189e-06
-2.6464789e-06
-3.599796e-06
-4.4740451e-06
-5.4273622e-06
-6.2871223e-06
-7.2889255e-06
-8.0893573e-06
1.5055068e-08
-7.8595574e-07
-1.7867159e-06
-2.646563e-06
-3.5997781e-06
-4.474063e-06
-5.4272781e-06
-6.2871252e-06
-7.2878854e-06
-8.0888962e-06
1.414021e-08
-7.8801069e-07
-1.7867077e-06
-2.6467281e-06
-3.5997425e-06
-4.4740986e-06
-5.427113e-06
-6.2871334e-06
-7.2858304e-06
-8.0879813e-06
1.2786285e-08
-7.9102982e-07
-1.7866896e-06
-2.6469677e-06
-3.5996893e-06
-4.4741518e-06
-5.4268734e-06
-6.2871516e-06
-7.2828113e-06
-8.0866274e-06
1.101617e-08
-7.9493727e-07
-1.7866546e-06
-2.6472725e-06
-3.5996187e-06
-4.4742224e-06
-5.4265686e-06
-6.2871865e-06
-7.2789038e-06
-8.0848573e-06
8.8618617e-09
-7.9963206e-07
-1.7865938e-06
-2.6476304e-06
-3.599531e-06
-4.4743101e-06
-5.4262107e-06
-6.2872473e-06
-7.2742091e-06
-8.082703e-06
6.3657969e-09
-8.0498813e-07
-1.7864959e-06
-2.6480266e-06
-3.5994266e-06
-4.4744145e-06
-5.4258145e-06
-6.2873452e-06
-7.268853e-06
-8.0802069e-06
3.5825466e-09
-8.1085459e-07
-1.7863479e-06
-2.6484445e-06
-3.599306e-06
-4.4745351e-06
-5.4253966e-06
-6.2874932e-06
-7.2629865e-06
-8.0774237e-06
5.8092517e-10
-8.1705578e-07
-1.7861347e-06
-2.6488654e-06
-3.5991698e-06
-4.4746713e-06
-5.4249758e-06
-6.2877065e-06
-7.2567853e-06
-8.074422e-06
-2.5534912e-09
-8.2339158e-07
-1.7858397e-06
-2.6492694e-06
-3.5990186e-06
-4.4748225e-06
-5.4245717e-06
-6.2880014e-06
-7.2504495e-06
-8.0712876e-06
-5.7154669e-09
-8.2963779e-07
-1.7854451e-06
-2.6496363e-06
-3.5988531e-06
-4.474988e-06
-5.4242048e-06
-6.288396e-06
-7.2442033e-06
-8.0681256e-06
-8.776418e-09
-8.3554619e-07
-1.7849321e-06
-2.6499456e-06
-3.5986742e-06
-4.4751669e-06
-5.4238955e-06
-6.288909e-06
-7.2382949e-06
-8.0650647e-06
-1.1578923e-08
-8.4084364e-07
-1.784281e-06
-2.6501777e-06
-3.598483e-06
-4.4753581e-06
-5.4236634e-06
-6.2895602e-06
-7.2329975e-06
-8.0622622e-06
-1.3930394e-08
-8.4523163e-07
-1.7834718e-06
-2.6503143e-06
-3.5982806e-06
-4.4755605e-06
-5.4235268e-06
-6.2903693e-06
-7.2286095e-06
-8.0599107e-06
-1.5605475e-08
-8.4839639e-07
-1.7824871e-06
-2.6503398e-06
-3.598069e-06
-4.4757721e-06
-5.4235013e-06
-6.291354e-06
-7.2254447e-06
-8.0582356e-06
-1.6368165e-08
-8.5003489e-07
-1.7813168e-06
-2.6502455e-06
-3.5978499e-06
-4.4759912e-06
-5.4235956e-06
-6.2925243e-06
-7.2238062e-06
-8.0574729e-06
-1.5936977e-08
-8.4980804e-07
-1.7799469e-06
-2.6500315e-06
-3.5976205e-06
-4.4762206e-06
-5.4238096e-06
-6.2938942e-06
-7.2240331e-06
-8.0579041e-06
-1.3655857e-08
-8.4701446e-07
-1.7783015e-06
-2.6496829e-06
-3.5973749e-06
-4.4764662e-06
-5.4241582e-06
-6.2955396e-06
-7.2268267e-06
-8.0601853e-06
-8.1913991e-09
-8.4048565e-07
-1.7762648e-06
-2.649114e-06
-3.597148e-06
-4.4766931e-06
-5.4247271e-06
-6.2975763e-06
-7.2333555e-06
-8.0656497e-06
-2.2819403e-12
-8.3149627e-07
-1.7742509e-06
-2.6483161e-06
-3.5970786e-06
-4.4767625e-06
-5.425525e-06
-6.2995902e-06
-7.2423448e-06
-8.0738388e-06
VECTORS U float
0.012331425 -6.4441981e-09 0.0
0.012331633 -5.4165667e-09 0.0
0.012331669 -5.056302e-10 0.0
0.012331677 -7.3489322e-10 0.0
0.012331682 3.2970269e-10 0.0
0.012331682 -3.297027e-10 0.0
0.012331677 7.3489318e-10 0.0
0.012331669 5.0563018e-10 0.0
0.012331633 5.4165666e-09 0.0
0.012331425 6.4441969e-09 0.0
0.036995709 -2.9452925e-08 0.0
0.0369962 -2.742342e-08 0.0
0.036996298 -3.9425576e-09 0.0
0.036996321 -3.2091138e-09 0.0
0.036996334 9.2404183e-10 0.0
0.036996334 -9.240419e-10 0.0
0.036996321 3.2091138e-09 0.0
0.036996298 3.9425575e-09 0.0
0.0369962 2.742342e-08 0.0
0.036995709 2.9452922e-08 0.0
0.061662983 -6.9116737e-08 0.0
0.061663647 -6.8698423e-08 0.0
0.061663795 -1.2004259e-08 0.0
0.06166383 -7.401426e-09 0.0
0.061663851 1.2376472e-09 0.0
0.061663851 -1.2376473e-09 0.0
0.06166383 7.4014259e-09 0.0
0.061663795 1.2004259e-08 0.0
0.061663647 6.8698422e-08 0.0
0.061662983 6.9116734e-08 0.0
0.086335306 -1.1802421e-07 0.0
0.086336054 -1.2203771e-07 0.0
0.086336239 -2.3762065e-08 0.0
0.086336282 -1.2756117e-08 0.0
0.086336308 1.1309745e-09 0.0
0.086336308 -1.1309748e-09 0.0
0.086336282 1.2756117e-08 0.0
0.086336239 2.3762065e-08 0.0
0.086336054 1.2203771e-07 0.0
0.086335306 1.180242e-07 0.0
0.11101471 -1.6954683e-07 0.0
0.11101547 -1.8000435e-07 0.0
0.11101568 -3.7767927e-08 0.0
0.11101572 -1.8779476e-08 0.0
0.11101575 6.7825403e-10 0.0
0.11101575 -6.7825454e-10 0.0
0.11101572 1.8779475e-08 0.0
0.11101568 3.7767927e-08 0.0
0.11101547 1.8000435e-07 0.0
0.11101471 1.6954683e-07 0.0
0.13570318 -2.1945544e-07 0.0
0.13570389 -2.3748961e-07 0.0
0.13570411 -5.277772e-08 0.0
0.13570416 -2.5077964e-08 0.0
0.13570419 -1.239984e-11 0.0
0.13570419 1.2399153e-11 0.0
0.13570416 2.5077964e-08 0.0
0.13570411 5.277772e-08 0.0
0.13570389 2.3748961e-07 0.0
0.13570318 2.1945544e-07 0.0
0.16040266 -2.6469092e-07 0.0
0.16040327 -2.9068496e-07 0.0
0.16040349 -6.768831e-08 0.0
0.16040353 -3.1265204e-08 0.0
0.16040356 -8.4826207e-10 0.0
0.16040356 8.4826122e-10 0.0
0.16040353 3.1265204e-08 0.0
0.16040349 6.768831e-08 0.0
0.16040327 2.9068496e-07 0.0
0.16040266 2.6469092e-07 0.0
0.185115 -3.0286743e-07 0.0
0.18511549 -3.3655465e-07 0.0
0.1851157 -8.1494164e-08 0.0
0.18511572 -3.6962333e-08 0.0
0.18511576 -1.7456056e-09 0.0
0.18511576 1.7456046e-09 0.0
0.18511572 3.6962333e-08 0.0
0.1851157 8.1494164e-08 0.0
0.18511549 3.3655464e-07 0.0
0.185115 3.0286743e-07 0.0
0.20984199 -3.3222221e-07 0.0
0.20984233 -3.7277612e-07 0.0
0.20984252 -9.3318759e-08 0.0
0.20984253 -4.1824784e-08 0.0
0.20984256 -2.6264994e-09 0.0
0.20984256 2.6264983e-09 0.0
0.20984253 4.1824784e-08 0.0
0.20984252 9.3318759e-08 0.0
0.20984233 3.7277612e-07 0.0
0.20984199 3.3222221e-07 0.0
0.23458533 -3.5158063e-07 0.0
0.23458551 -3.9771668e-07 0.0
0.23458567 -1.024465e-07 0.0
0.23458566 -4.5560387e-08 0.0
0.23458569 -3.4214485e-09 0.0
0.23458569 3.4214474e-09 0.0
0.23458566 4.5560387e-08 0.0
0.23458567 1.024465e-07 0.0
0.23458551 3.9771668e-07 0.0
0.23458533 3.5158063e-07 0.0
0.25934662 -3.6028639e-07 0.0
0.25934662 -4.1037199e-07 0.0
0.25934675 -1.0833766e-07 0.0
0.25934672 -4.7939507e-08 0.0
0.25934675 -4.0722483e-09 0.0
0.25934675 4.0722472e-09 0.0
0.25934672 4.7939507e-08 0.0
0.25934675 1.0833766e-07 0.0
0.25934662 4.1037199e-07 0.0
0.25934662 3.6028639e-07 0.0
0.28412733 -3.581314e-07 0.0
0.28412716 -4.1029713e-07 0.0
0.28412726 -1.1063283e-07 0.0
0.2841272 -4.8801264e-08 0.0
0.28412723 -4.5337344e-09 0.0
0.28412723 4.5337334e-09 0.0
0.2841272 4.8801264e-08 0.0
0.28412726 1.1063283e-07 0.0
0.28412716 4.1029713e-07 0.0
0.28412733 3.5813139e-07 0.0
0.30892883 -3.4529567e-07 0.0
0.3089285 -3.9754335e-07 0.0
0.30892856 -1.0915113e-07 0.0
0.30892848 -4.8056805e-08 0.0
0.3089285 -4.7747504e-09 0.0
0.3089285 4.7747496e-09 0.0
0.30892848 4.8056805e-08 0.0
0.30892856 1.0915113e-07 0.0
0.3089285 3.9754335e-07 0.0
0.30892883 3.4529567e-07 0.0
0.33375235 -3.2229463e-07 0.0
0.33375187 -3.725995e-07 0.0
0.33375189 -1.0388347e-07 0.0
0.33375179 -4.568967e-08 0.0
0.33375181 -4.778533e-09 0.0
0.33375181 4.7785325e-09 0.0
0.33375179 4.5689671e-08 0.0
0.33375189 1.0388347e-07 0.0
0.33375187 3.7259949e-07 0.0
0.33375235 3.2229463e-07 0.0
0.358599 -2.8993088e-07 0.0
0.35859837 -3.3633571e-07 0.0
0.35859836 -9.4981277e-08 0.0
0.35859824 -4.1753466e-08 0.0
0.35859826 -4.5425365e-09 0.0
0.35859826 4.5425364e-09 0.0
0.35859824 4.1753466e-08 0.0
0.35859836 9.4981277e-08 0.0
0.35859837 3.3633571e-07 0.0
0.358599 2.8993088e-07 0.0
0.38346972 -2.4924954e-07 0.0
0.38346896 -2.8994907e-07 0.0
0.38346893 -8.2741642e-08 0.0
0.38346879 -3.6367183e-08 0.0
0.3834688 -4.0777171e-09 0.0
0.3834688 4.0777175e-09 0.0
0.38346879 3.6367184e-08 0.0
0.38346893 8.2741641e-08 0.0
0.38346896 2.8994907e-07 0.0
0.38346972 2.4924954e-07 0.0
0.40836531 -2.0149651e-07 0.0
0.40836446 -2.3491067e-07 0.0
0.4083644 -6.7589418e-08 0.0
0.40836424 -2.9708502e-08 0.0
0.40836425 -3.4073273e-09 0.0
0.40836425 3.4073281e-09 0.0
0.40836424 2.9708502e-08 0.0
0.4083644 6.7589417e-08 0.0
0.40836446 2.3491067e-07 0.0
0.40836531 2.0149651e-07 0.0
0.43328643 -1.4807904e-07 0.0
0.4332855 -1.7291417e-07 0.0
0.43328542 -5.005699e-08 0.0
0.43328525 -2.2005397e-08 0.0
0.43328526 -2.5652832e-09 0.0
0.43328526 2.5652838e-09 0.0
0.43328525 2.2005397e-08 0.0
0.43328542 5.0056989e-08 0.0
0.4332855 1.7291417e-07 0.0
0.43328643 1.4807904e-07 0.0
0.45823358 -9.0528191e-08 0.0
0.45823259 -1.058253e-07 0.0
0.4582325 -3.0762194e-08 0.0
0.45823232 -1.352638e-08 0.0
0.45823233 -1.5941741e-09 0.0
0.45823233 1.5941739e-09 0.0
0.45823232 1.3526381e-08 0.0
0.4582325 3.0762193e-08 0.0
0.45823259 1.0582529e-07 0.0
0.45823358 9.052819e-08 0.0
0.48320706 -3.0462515e-08 0.0
0.48320605 -3.5632123e-08 0.0
0.48320595 -1.0384854e-08 0.0
0.48320577 -4.5696717e-09 0.0
0.48320578 -5.4298974e-10 0.0
0.48320578 5.4298904e-10 0.0
0.48320577 4.5696719e-09 0.0
0.48320595 1.0384854e-08 0.0
0.48320605 3.5632122e-08 0.0
0.48320706 3.0462513e-08 0.0
0.50820706 3.0447276e-08 0.0
0.50820605 3.5604054e-08 0.0
0.50820595 1.0357637e-08 0.0
0.50820577 4.5483814e-09 0.0
0.50820578 5.3535689e-10 0.0
0.50820578 -5.3535673e-10 0.0
0.50820577 -4.5483814e-09 0.0
0.50820595 -1.0357637e-08 0.0
0.50820605 -3.5604055e-08 0.0
0.50820706 -3.0447278e-08 0.0
0.53323358 9.0513141e-08 0.0
0.53323259 1.0579757e-07 0.0
0.5332325 3.0735297e-08 0.0
0.53323232 1.3505337e-08 0.0
0.53323233 1.5866299e-09 0.0
0.53323233 -1.5866288e-09 0.0
0.53323232 -1.3505337e-08 0.0
0.5332325 -3.0735297e-08 0.0
0.53323259 -1.0579757e-07 0.0
0.53323358 -9.0513143e-08 0.0
0.55828643 1.4806436e-07 0.0
0.5582855 1.7288713e-07 0.0
0.55828542 5.0030726e-08 0.0
0.55828525 2.1984842e-08 0.0
0.55828526 2.5579141e-09 0.0
0.55828526 -2.5579128e-09 0.0
0.55828525 -2.1984843e-08 0.0
0.55828542 -5.0030726e-08 0.0
0.5582855 -1.7288713e-07 0.0
0.55828643 -1.4806437e-07 0.0
0.58336531 2.0148238e-07 0.0
0.58336446 2.3488462e-07 0.0
0.5833644 6.7564085e-08 0.0
0.58336424 2.9688667e-08 0.0
0.58336425 3.4002159e-09 0.0
0.58336425 -3.4002145e-09 0.0
0.58336424 -2.9688667e-08 0.0
0.5833644 -6.7564086e-08 0.0
0.58336446 -2.3488463e-07 0.0
0.58336531 -2.0148238e-07 0.0
0.60846971 2.4923612e-07 0.0
0.60846896 2.8992432e-07 0.0
0.60846893 8.2717518e-08 0.0
0.60846878 3.6348283e-08 0.0
0.6084688 4.0709403e-09 0.0
0.6084688 -4.0709387e-09 0.0
0.60846878 -3.6348283e-08 0.0
0.60846893 -8.2717519e-08 0.0
0.60846896 -2.8992432e-07 0.0
0.60846971 -2.4923612e-07 0.0
0.633599 2.8991831e-07 0.0
0.63359837 3.3631252e-07 0.0
0.63359836 9.4958612e-08 0.0
0.63359824 4.1735694e-08 0.0
0.63359826 4.5361639e-09 0.0
0.63359826 -4.5361624e-09 0.0
0.63359824 -4.1735694e-08 0.0
0.63359836 -9.4958612e-08 0.0
0.63359837 -3.3631252e-07 0.0
0.633599 -2.8991832e-07 0.0
0.65875235 3.2228304e-07 0.0
0.65875186 3.7257809e-07 0.0
0.65875189 1.0386248e-07 0.0
0.65875179 4.5673196e-08 0.0
0.65875181 4.7726252e-09 0.0
0.65875181 -4.7726238e-09 0.0
0.65875179 -4.5673196e-08 0.0
0.65875189 -1.0386248e-07 0.0
0.65875186 -3.7257809e-07 0.0
0.65875235 -3.2228304e-07 0.0
0.68392883 3.4528516e-07 0.0
0.6839285 3.9752391e-07 0.0
0.68392856 1.09132e-07 0.0
0.68392848 4.8041768e-08 0.0
0.6839285 4.7693576e-09 0.0
0.6839285 -4.7693564e-09 0.0
0.68392848 -4.8041769e-08 0.0
0.68392856 -1.09132e-07 0.0
0.6839285 -3.9752391e-07 0.0
0.68392883 -3.4528516e-07 0.0
0.70912733 3.5812203e-07 0.0
0.70912716 4.1027979e-07 0.0
0.70912726 1.1061568e-07 0.0
0.7091272 4.8787772e-08 0.0
0.70912723 4.5288954e-09 0.0
0.70912723 -4.5288942e-09 0.0
0.7091272 -4.8787772e-08 0.0
0.70912726 -1.1061568e-07 0.0
0.70912716 -4.1027979e-07 0.0
0.70912733 -3.5812203e-07 0.0
0.73434662 3.6027821e-07 0.0
0.73434662 4.1035683e-07 0.0
0.73434675 1.0832259e-07 0.0
0.73434672 4.7927633e-08 0.0
0.73434675 4.067989e-09 0.0
0.73434675 -4.0679875e-09 0.0
0.73434672 -4.7927632e-08 0.0
0.73434675 -1.0832259e-07 0.0
0.73434662 -4.1035683e-07 0.0
0.73434662 -3.6027821e-07 0.0
0.75958533 3.5157365e-07 0.0
0.75958551 3.9770373e-07 0.0
0.75958567 1.0243354e-07 0.0
0.75958566 4.5550166e-08 0.0
0.75958569 3.4177816e-09 0.0
0.75958569 -3.4177796e-09 0.0
0.75958566 -4.5550166e-08 0.0
0.75958567 -1.0243354e-07 0.0
0.75958551 -3.9770373e-07 0.0
0.75958533 -3.5157365e-07 0.0
0.78484199 3.3221642e-07 0.0
0.78484233 3.7276535e-07 0.0
0.78484252 9.3307911e-08 0.0
0.78484253 4.1816213e-08 0.0
0.78484256 2.6234237e-09 0.0
0.78484256 -2.6234217e-09 0.0
0.78484253 -4.1816213e-08 0.0
0.78484252 -9.3307911e-08 0.0
0.78484233 -3.7276536e-07 0.0
0.78484199 -3.3221642e-07 0.0
0.810115 3.0286277e-07 0.0
0.81011549 3.3654599e-07 0.0
0.81011569 8.1485365e-08 0.0
0.81011572 3.695537e-08 0.0
0.81011575 1.7431061e-09 0.0
0.81011575 -1.7431039e-09 0.0
0.81011572 -3.695537e-08 0.0
0.81011569 -8.1485365e-08 0.0
0.81011549 -3.3654599e-07 0.0
0.810115 -3.0286277e-07 0.0
0.83540266 2.6468733e-07 0.0
0.83540327 2.9067828e-07 0.0
0.83540349 6.768145e-08 0.0
0.83540353 3.1259768e-08 0.0
0.83540356 8.4630951e-10 0.0
0.83540356 -8.4630706e-10 0.0
0.83540353 -3.1259768e-08 0.0
0.83540349 -6.768145e-08 0.0
0.83540327 -2.9067828e-07 0.0
0.83540266 -2.6468733e-07 0.0
0.86070318 2.1945282e-07 0.0
0.86070389 2.3748473e-07 0.0
0.86070411 5.2772641e-08 0.0
0.86070415 2.5073934e-08 0.0
0.86070419 1.0951526e-11 0.0
0.86070419 -1.0948746e-11 0.0
0.86070415 -2.5073935e-08 0.0
0.86070411 -5.2772641e-08 0.0
0.86070389 -2.3748473e-07 0.0
0.86070318 -2.1945282e-07 0.0
0.88601471 1.6954504e-07 0.0
0.88601547 1.8000103e-07 0.0
0.88601568 3.7764425e-08 0.0
0.88601572 1.8776696e-08 0.0
0.88601575 -6.7925423e-10 0.0
0.88601575 6.7925701e-10 0.0
0.88601572 -1.8776697e-08 0.0
0.88601568 -3.7764426e-08 0.0
0.88601547 -1.8000103e-07 0.0
0.88601471 -1.6954504e-07 0.0
0.91133531 1.1802312e-07 0.0
0.91133605 1.2203569e-07 0.0
0.91133624 2.3759898e-08 0.0
0.91133628 1.2754399e-08 0.0
0.91133631 -1.1315946e-09 0.0
0.91133631 1.1315967e-09 0.0
0.91133628 -1.27544e-08 0.0
0.91133624 -2.3759898e-08 0.0
0.91133605 -1.2203569e-07 0.0
0.91133531 -1.1802312e-07 0.0
0.93666298 6.9116187e-08 0.0
0.93666365 6.8697412e-08 0.0
0.93666379 1.2003143e-08 0.0
0.93666383 7.4005441e-09 0.0
0.93666385 -1.2379672e-09 0.0
0.93666385 1.2379684e-09 0.0
0.93666383 -7.4005447e-09 0.0
0.93666379 -1.2003143e-08 0.0
0.93666365 -6.8697412e-08 0.0
0.93666298 -6.9116187e-08 0.0
0.96199571 2.9452729e-08 0.0
0.9619962 2.7423068e-08 0.0
0.9619963 3.9421513e-09 0.0
0.96199632 3.2087961e-09 0.0
0.96199633 -9.2415842e-10 0.0
0.96199633 9.2415889e-10 0.0
0.96199632 -3.2087965e-09 0.0
0.9619963 -3.9421513e-09 0.0
0.9619962 -2.7423068e-08 0.0
0.96199571 -2.9452729e-08 0.0
0.98733143 6.4441656e-09 0.0
0.98733163 5.4165116e-09 0.0
0.98733167 5.0556039e-10 0.0
0.98733168 7.3483998e-10 0.0
0.98733168 -3.2972266e-10 0.0
0.98733168 3.2972272e-10 0.0
0.98733168 -7.3484015e-10 0.0
0.98733167 -5.0556041e-10 0.0
0.98733163 -5.4165116e-09 0.0
0.98733143 -6.4441654e-09 0.0
